<?xml version="1.0" encoding="UTF-8" standalone="no"?>
<!DOCTYPE svg PUBLIC "-//W3C//DTD SVG 1.1//EN"
 "http://www.w3.org/Graphics/SVG/1.1/DTD/svg11.dtd">
<!-- Generated by graphviz version 2.42.4 (0)
 -->
<!-- Title: G Pages: 1 -->
<svg width="725pt" height="562pt"
 viewBox="0.00 0.00 725.30 562.09" xmlns="http://www.w3.org/2000/svg" xmlns:xlink="http://www.w3.org/1999/xlink">
<g id="graph0" class="graph" transform="scale(1 1) rotate(0) translate(14.4 547.69)">
<title>G</title>
<polygon fill="white" stroke="transparent" points="-14.4,14.4 -14.4,-547.69 710.9,-547.69 710.9,14.4 -14.4,14.4"/>
<g id="clust1" class="cluster">
<title>cluster_S</title>
<polygon fill="white" stroke="black" stroke-dasharray="5,2" points="8,-8 8,-449.45 537,-449.45 537,-8 8,-8"/>
<text text-anchor="start" x="16" y="-438.25" font-family="DejaVu Sans" font-size="9.00">declared scope S &#160;(σ(x) ∈ S)</text>
</g>
<!-- q -->
<g id="node1" class="node">
<title>q</title>
<ellipse fill="none" stroke="black" stroke-width="1.1" cx="269" cy="-511.37" rx="72.66" ry="21.84"/>
<text text-anchor="start" x="224.5" y="-513.47" font-family="DejaVu Sans" font-weight="bold" font-size="13.00">q</text>
<text text-anchor="start" x="234.5" y="-513.47" font-family="DejaVu Sans" font-size="13.00"> &#160;origin task</text>
<text text-anchor="start" x="229" y="-502.87" font-family="DejaVu Sans" font-size="10.00">terminated at t</text>
<text text-anchor="start" x="303" y="-502.87" font-family="DejaVu Sans" baseline-shift="sub" font-size="10.00">0</text>
</g>
<!-- a201 -->
<g id="node2" class="node">
<title>a201</title>
<path fill="none" stroke="black" stroke-width="1.1" d="M305.5,-423.45C305.5,-423.45 232.5,-423.45 232.5,-423.45 226.5,-423.45 220.5,-417.45 220.5,-411.45 220.5,-411.45 220.5,-399.45 220.5,-399.45 220.5,-393.45 226.5,-387.45 232.5,-387.45 232.5,-387.45 305.5,-387.45 305.5,-387.45 311.5,-387.45 317.5,-393.45 317.5,-399.45 317.5,-399.45 317.5,-411.45 317.5,-411.45 317.5,-417.45 311.5,-423.45 305.5,-423.45"/>
<text text-anchor="start" x="227.5" y="-407.55" font-family="DejaVu Sans" font-weight="bold" font-size="13.00">201</text>
<text text-anchor="start" x="255.5" y="-407.55" font-family="DejaVu Sans" font-size="13.00"> commit</text>
<text text-anchor="start" x="251" y="-396.95" font-family="DejaVu Sans" font-size="10.00">artifact</text>
</g>
<!-- q&#45;&gt;a201 -->
<g id="edge1" class="edge">
<title>q&#45;&gt;a201</title>
<path fill="none" stroke="black" d="M269,-489.34C269,-472.12 269,-447.78 269,-429.93"/>
<polygon fill="black" stroke="black" points="271.1,-429.67 269,-423.67 266.9,-429.67 271.1,-429.67"/>
<text text-anchor="middle" x="299.5" y="-460.65" font-family="DejaVu Sans" font-size="11.00">creates · B</text>
</g>
<!-- t208 -->
<g id="node7" class="node">
<title>t208</title>
<path fill="none" stroke="black" stroke-width="1.1" d="M516.5,-423.45C516.5,-423.45 349.5,-423.45 349.5,-423.45 343.5,-423.45 337.5,-417.45 337.5,-411.45 337.5,-411.45 337.5,-399.45 337.5,-399.45 337.5,-393.45 343.5,-387.45 349.5,-387.45 349.5,-387.45 516.5,-387.45 516.5,-387.45 522.5,-387.45 528.5,-393.45 528.5,-399.45 528.5,-399.45 528.5,-411.45 528.5,-411.45 528.5,-417.45 522.5,-423.45 516.5,-423.45"/>
<text text-anchor="start" x="344.5" y="-407.55" font-family="DejaVu Sans" font-weight="bold" font-size="13.00">208</text>
<text text-anchor="start" x="372.5" y="-407.55" font-family="DejaVu Sans" font-size="13.00"> webhook subscription</text>
<text text-anchor="start" x="379" y="-396.95" font-family="DejaVu Sans" font-size="10.00">trigger · γ: push event</text>
</g>
<!-- q&#45;&gt;t208 -->
<g id="edge6" class="edge">
<title>q&#45;&gt;t208</title>
<path fill="none" stroke="black" d="M299.96,-491.32C311.04,-484.47 323.6,-476.65 335,-469.45 357.2,-455.44 382.08,-439.44 401.22,-427.07"/>
<polygon fill="black" stroke="black" points="402.56,-428.7 406.45,-423.68 400.28,-425.18 402.56,-428.7"/>
<text text-anchor="middle" x="383.5" y="-460.65" font-family="DejaVu Sans" font-size="11.00">creates · D</text>
</g>
<!-- p210 -->
<g id="node8" class="node">
<title>p210</title>
<path fill="none" stroke="black" stroke-width="1.1" d="M188,-423.45C188,-423.45 28,-423.45 28,-423.45 22,-423.45 16,-417.45 16,-411.45 16,-411.45 16,-399.45 16,-399.45 16,-393.45 22,-387.45 28,-387.45 28,-387.45 188,-387.45 188,-387.45 194,-387.45 200,-393.45 200,-399.45 200,-399.45 200,-411.45 200,-411.45 200,-417.45 194,-423.45 188,-423.45"/>
<text text-anchor="start" x="23" y="-407.55" font-family="DejaVu Sans" font-weight="bold" font-size="13.00">210</text>
<text text-anchor="start" x="51" y="-407.55" font-family="DejaVu Sans" font-size="13.00"> shared deploy policy</text>
<text text-anchor="start" x="26.5" y="-396.95" font-family="DejaVu Sans" font-size="10.00">mutated by q · treated as artifact</text>
</g>
<!-- q&#45;&gt;p210 -->
<g id="edge8" class="edge">
<title>q&#45;&gt;p210</title>
<path fill="none" stroke="black" d="M235.92,-491.73C224.15,-484.92 210.87,-477.02 199,-469.45 177.85,-455.98 154.62,-439.87 136.92,-427.32"/>
<polygon fill="black" stroke="black" points="137.72,-425.31 131.61,-423.54 135.28,-428.73 137.72,-425.31"/>
<text text-anchor="middle" x="231.5" y="-460.65" font-family="DejaVu Sans" font-size="11.00">mutates · A</text>
</g>
<!-- a202 -->
<g id="node3" class="node">
<title>a202</title>
<path fill="none" stroke="black" stroke-width="1.1" d="M510,-335.45C510,-335.45 356,-335.45 356,-335.45 350,-335.45 344,-329.45 344,-323.45 344,-323.45 344,-311.45 344,-311.45 344,-305.45 350,-299.45 356,-299.45 356,-299.45 510,-299.45 510,-299.45 516,-299.45 522,-305.45 522,-311.45 522,-311.45 522,-323.45 522,-323.45 522,-329.45 516,-335.45 510,-335.45"/>
<text text-anchor="start" x="351" y="-319.55" font-family="DejaVu Sans" font-weight="bold" font-size="13.00">202</text>
<text text-anchor="start" x="379" y="-319.55" font-family="DejaVu Sans" font-size="13.00"> scheduled workflow</text>
<text text-anchor="start" x="367" y="-308.95" font-family="DejaVu Sans" font-size="10.00">trigger · γ: cron 02:00 daily</text>
</g>
<!-- a201&#45;&gt;a202 -->
<g id="edge2" class="edge">
<title>a201&#45;&gt;a202</title>
<path fill="none" stroke="black" d="M301.79,-387.26C328.7,-373.15 366.81,-353.16 395.04,-338.36"/>
<polygon fill="black" stroke="black" points="396.2,-340.12 400.54,-335.47 394.25,-336.4 396.2,-340.12"/>
<text text-anchor="middle" x="390.5" y="-358.65" font-family="DejaVu Sans" font-size="11.00">creates · B</text>
</g>
<!-- i204 -->
<g id="node4" class="node">
<title>i204</title>
<path fill="none" stroke="black" stroke-width="1.1" d="M322.5,-247.45C322.5,-247.45 201.5,-247.45 201.5,-247.45 195.5,-247.45 189.5,-241.45 189.5,-235.45 189.5,-235.45 189.5,-223.45 189.5,-223.45 189.5,-217.45 195.5,-211.45 201.5,-211.45 201.5,-211.45 322.5,-211.45 322.5,-211.45 328.5,-211.45 334.5,-217.45 334.5,-223.45 334.5,-223.45 334.5,-235.45 334.5,-235.45 334.5,-241.45 328.5,-247.45 322.5,-247.45"/>
<text text-anchor="start" x="196.5" y="-231.55" font-family="DejaVu Sans" font-weight="bold" font-size="13.00">204</text>
<text text-anchor="start" x="224.5" y="-231.55" font-family="DejaVu Sans" font-size="13.00"> runner identity</text>
<text text-anchor="start" x="243" y="-220.95" font-family="DejaVu Sans" font-size="10.00">identity</text>
</g>
<!-- a202&#45;&gt;i204 -->
<g id="edge3" class="edge">
<title>a202&#45;&gt;i204</title>
<path fill="none" stroke="black" d="M398.81,-299.26C370.64,-285.09 330.68,-264.99 301.22,-250.18"/>
<polygon fill="black" stroke="black" points="302.15,-248.29 295.84,-247.47 300.26,-252.04 302.15,-248.29"/>
<text text-anchor="start" x="357" y="-271.65" font-family="DejaVu Sans" font-size="11.00">runs&#45;as · C</text>
<text text-anchor="start" x="417" y="-271.65" font-family="DejaVu Sans" baseline-shift="sub" font-size="11.00">1</text>
</g>
<!-- x207 -->
<g id="node10" class="node">
<title>x207</title>
<path fill="none" stroke="black" stroke-width="1.1" stroke-dasharray="1,5" d="M684.5,-247.45C684.5,-247.45 557.5,-247.45 557.5,-247.45 551.5,-247.45 545.5,-241.45 545.5,-235.45 545.5,-235.45 545.5,-223.45 545.5,-223.45 545.5,-217.45 551.5,-211.45 557.5,-211.45 557.5,-211.45 684.5,-211.45 684.5,-211.45 690.5,-211.45 696.5,-217.45 696.5,-223.45 696.5,-223.45 696.5,-235.45 696.5,-235.45 696.5,-241.45 690.5,-247.45 684.5,-247.45"/>
<text text-anchor="start" x="566" y="-231.55" font-family="DejaVu Sans" font-weight="bold" font-size="13.00">207</text>
<text text-anchor="start" x="594" y="-231.55" font-family="DejaVu Sans" font-size="13.00"> queue copy</text>
<text text-anchor="start" x="552.5" y="-220.95" font-family="DejaVu Sans" font-size="10.00">outbound delivery outside S</text>
</g>
<!-- a202&#45;&gt;x207 -->
<g id="edge11" class="edge">
<title>a202&#45;&gt;x207</title>
<path fill="none" stroke="black" d="M470.59,-299.26C501.69,-285.03 545.86,-264.83 578.29,-249.99"/>
<polygon fill="black" stroke="black" points="579.21,-251.88 583.79,-247.47 577.46,-248.06 579.21,-251.88"/>
<text text-anchor="middle" x="586.5" y="-270.65" font-family="DejaVu Sans" font-size="11.00">delivers · C1 (C7)</text>
</g>
<!-- r205 -->
<g id="node5" class="node">
<title>r205</title>
<path fill="none" stroke="black" stroke-width="1.1" d="M299,-159.45C299,-159.45 169,-159.45 169,-159.45 163,-159.45 157,-153.45 157,-147.45 157,-147.45 157,-135.45 157,-135.45 157,-129.45 163,-123.45 169,-123.45 169,-123.45 299,-123.45 299,-123.45 305,-123.45 311,-129.45 311,-135.45 311,-135.45 311,-147.45 311,-147.45 311,-153.45 305,-159.45 299,-159.45"/>
<text text-anchor="start" x="164" y="-143.55" font-family="DejaVu Sans" font-weight="bold" font-size="13.00">205</text>
<text text-anchor="start" x="192" y="-143.55" font-family="DejaVu Sans" font-size="13.00"> cloud credential</text>
<text text-anchor="start" x="212.5" y="-132.95" font-family="DejaVu Sans" font-size="10.00">resource</text>
</g>
<!-- i204&#45;&gt;r205 -->
<g id="edge4" class="edge">
<title>i204&#45;&gt;r205</title>
<path fill="none" stroke="black" d="M256.33,-211.05C252.06,-197.91 246.14,-179.75 241.48,-165.42"/>
<polygon fill="black" stroke="black" points="243.42,-164.59 239.56,-159.54 239.42,-165.89 243.42,-164.59"/>
<text text-anchor="middle" x="285.5" y="-182.65" font-family="DejaVu Sans" font-size="11.00">delegates · B</text>
</g>
<!-- f206 -->
<g id="node6" class="node">
<title>f206</title>
<polygon fill="none" stroke="black" stroke-width="1.1" points="354.58,-33.82 354.58,-53.64 265.79,-67.65 140.21,-67.65 51.42,-53.64 51.42,-33.82 140.21,-19.8 265.79,-19.8 354.58,-33.82"/>
<polygon fill="none" stroke="black" stroke-width="1.1" points="358.59,-30.37 358.59,-57.09 266.1,-71.68 139.9,-71.68 47.41,-57.09 47.41,-30.37 139.9,-15.77 266.1,-15.77 358.59,-30.37"/>
<text text-anchor="start" x="111" y="-45.83" font-family="DejaVu Sans" font-weight="bold" font-size="13.00">206</text>
<text text-anchor="start" x="139" y="-45.83" font-family="DejaVu Sans" font-size="13.00"> prohibited deployment</text>
<text text-anchor="start" x="187" y="-35.23" font-family="DejaVu Sans" font-size="10.00">f ∈ F</text>
<text text-anchor="start" x="212" y="-35.23" font-family="DejaVu Sans" baseline-shift="super" font-size="10.00">−</text>
</g>
<!-- r205&#45;&gt;f206 -->
<g id="edge5" class="edge">
<title>r205&#45;&gt;f206</title>
<path fill="none" stroke="black" d="M228.46,-123.34C224.37,-110.71 218.67,-93.13 213.71,-77.79"/>
<polygon fill="black" stroke="black" points="215.62,-76.88 211.78,-71.82 211.63,-78.18 215.62,-76.88"/>
<text text-anchor="middle" x="256" y="-94.65" font-family="DejaVu Sans" font-size="11.00">activates · B</text>
</g>
<!-- t208&#45;&gt;a202 -->
<g id="edge7" class="edge">
<title>t208&#45;&gt;a202</title>
<path fill="none" stroke="black" d="M433,-387.05C433,-374.03 433,-356.08 433,-341.8"/>
<polygon fill="black" stroke="black" points="435.1,-341.54 433,-335.54 430.9,-341.54 435.1,-341.54"/>
<text text-anchor="middle" x="467" y="-358.65" font-family="DejaVu Sans" font-size="11.00">invokes · C1</text>
</g>
<!-- p210&#45;&gt;f206 -->
<g id="edge9" class="edge">
<title>p210&#45;&gt;f206</title>
<path fill="none" stroke="black" stroke-dasharray="5,2" d="M108,-387.32C108,-369.96 108,-342.34 108,-318.45 108,-318.45 108,-318.45 108,-140.45 108,-113.35 127.42,-91.19 148.7,-75.04"/>
<polygon fill="black" stroke="black" points="149.96,-76.72 153.55,-71.48 147.47,-73.33 149.96,-76.72"/>
<text text-anchor="middle" x="138.5" y="-226.65" font-family="DejaVu Sans" font-size="11.00">permits · B</text>
</g>
<!-- u209 -->
<g id="node9" class="node">
<title>u209</title>
<path fill="none" stroke="black" stroke-width="1.1" stroke-dasharray="5,2" d="M311.5,-335.45C311.5,-335.45 194.5,-335.45 194.5,-335.45 188.5,-335.45 182.5,-329.45 182.5,-323.45 182.5,-323.45 182.5,-311.45 182.5,-311.45 182.5,-305.45 188.5,-299.45 194.5,-299.45 194.5,-299.45 311.5,-299.45 311.5,-299.45 317.5,-299.45 323.5,-305.45 323.5,-311.45 323.5,-311.45 323.5,-323.45 323.5,-323.45 323.5,-329.45 317.5,-335.45 311.5,-335.45"/>
<text text-anchor="start" x="194" y="-319.55" font-family="DejaVu Sans" font-weight="bold" font-size="13.00">209</text>
<text text-anchor="start" x="222" y="-319.55" font-family="DejaVu Sans" font-size="13.00"> job template</text>
<text text-anchor="start" x="189.5" y="-308.95" font-family="DejaVu Sans" font-size="10.00">authorship candidate U(q)</text>
</g>
<!-- u209&#45;&gt;i204 -->
<g id="edge10" class="edge">
<title>u209&#45;&gt;i204</title>
<path fill="none" stroke="black" stroke-dasharray="5,2" d="M254.82,-299.05C256.18,-286.03 258.06,-268.08 259.56,-253.8"/>
<polygon fill="black" stroke="black" points="261.68,-253.72 260.21,-247.54 257.5,-253.29 261.68,-253.72"/>
<text text-anchor="middle" x="291.5" y="-270.65" font-family="DejaVu Sans" font-size="11.00">runs&#45;as · C2</text>
</g>
</g>
</svg>
